<?xml version="1.0" encoding="UTF-8"?><svg id="icon" xmlns="http://www.w3.org/2000/svg" version="1.1" viewBox="0 0 512 512"><path fill="#ffffff" d="M256,0C114.8,0,0,114.8,0,256s114.8,256,256,256,256-114.8,256-256S397.2,0,256,0ZM247.6,339.9h-123c-24.5,0-44.5-17.7-44.5-39.5v-88.7c0-21.8,19.9-39.5,44.5-39.5h125.1c3.7,0,6.7,3,6.7,6.7v16.6c0,3.7-3,6.7-6.7,6.7h-125.1c-8.3,0-14.5,5-14.5,9.5v88.7c0,4.5,6.2,9.5,14.5,9.5h125.1c3.7,0,6.7,3,6.7,6.7v16.6c0,3.7-3,6.7-6.7,6.7h-2.1ZM322.1,373.3h-62.6c-4.6,0-7.7-4.1-7.6-8.1.2-4.4,3.5-7.4,8.2-7.5h23.1v-203.5h-23.3c-4.6,0-8-3.6-8-7.8s3.3-7.9,8-7.9h62.3c4.6,0,7.7,3.8,7.8,7.8,0,4.1-3.2,7.8-7.7,7.8h-23.5v203.5h23.3c4.5,0,7.7,3.4,7.9,7.6.1,4.2-3.2,8-7.9,8h0ZM431.9,300.4c0,21.8-19.9,39.5-44.5,39.5h-59.9c-3.7,0-6.7-3-6.7-6.7v-16.6c0-3.7,3-6.7,6.7-6.7h59.8c8.3,0,14.5-5,14.5-9.5v-88.7c0-4.5-6.2-9.5-14.5-9.5h-59.8c-3.7,0-6.7-3-6.7-6.7v-16.6c0-3.7,3-6.7,6.7-6.7h59.8c24.5,0,44.5,17.7,44.5,39.5v88.7h.1Z"/></svg>